<?xml version="1.0" standalone="no"?><!DOCTYPE svg PUBLIC "-//W3C//DTD SVG 1.1//EN" "http://www.w3.org/Graphics/SVG/1.1/DTD/svg11.dtd"><svg t="1655632352277" class="icon" viewBox="0 0 1024 1024" version="1.1" xmlns="http://www.w3.org/2000/svg" p-id="21537" xmlns:xlink="http://www.w3.org/1999/xlink" width="200" height="200"><defs><style type="text/css">@font-face { font-family: feedback-iconfont; src: url("//at.alicdn.com/t/font_1031158_u69w8yhxdu.woff2?t=1630033759944") format("woff2"), url("//at.alicdn.com/t/font_1031158_u69w8yhxdu.woff?t=1630033759944") format("woff"), url("//at.alicdn.com/t/font_1031158_u69w8yhxdu.ttf?t=1630033759944") format("truetype"); }
</style></defs><path d="M512 512m-512 0a512 512 0 1 0 1024 0 512 512 0 1 0-1024 0Z" fill="#FBD000" p-id="21538"></path><path d="M375.2 697.6l-46.4 45.6-49.6-17.6 62.4-62.4z" fill="#EAEAEA" p-id="21539"></path><path d="M328.8 751.2c-0.8 0-1.6 0-2.4-0.8l-49.6-17.6c-2.4-0.8-4.8-3.2-4.8-5.6-0.8-2.4 0-5.6 2.4-7.2l62.4-62.4c1.6-1.6 3.2-2.4 5.6-2.4 2.4 0 4 0.8 5.6 2.4l33.6 33.6c3.2 3.2 3.2 8 0 11.2l-46.4 46.4c-2.4 1.6-4 2.4-6.4 2.4z m-35.2-28.8l33.6 12 36.8-36.8-22.4-22.4-48 47.2z" fill="#663210" p-id="21540"></path><path d="M421.6 650.4c12.8 12.8 12.8 32.8 0 45.6l-20 20c-12.8 12.8-32.8 12.8-45.6 0l-38.4-38.4c-12.8-12.8-12.8-32.8 0-45.6l20-20c12.8-12.8 32.8-12.8 45.6 0l38.4 38.4z" fill="#EAEAEA" p-id="21541"></path><path d="M421.6 650.4L384 612.8c-12.8-12.8-32.8-12.8-45.6 0L318.4 632c-1.6 1.6-3.2 3.2-4 4.8 3.2 7.2 7.2 13.6 13.6 20l51.2 51.2c4.8 4.8 11.2 9.6 17.6 12 2.4-1.6 4-2.4 5.6-4.8l20-20c12-12 12-32-0.8-44.8z" fill="#D4D6D6" p-id="21542"></path><path d="M379.2 732.8c-10.4 0-20.8-4-28-12l-38.4-38.4c-15.2-15.2-15.2-40.8 0-56.8l20-20c7.2-7.2 17.6-12 28-12 10.4 0 20.8 4 28 12l38.4 38.4c15.2 15.2 15.2 40.8 0 56.8L408 721.6c-8 7.2-17.6 11.2-28.8 11.2z m-18.4-121.6c-6.4 0-12.8 2.4-16.8 7.2l-20 20c-9.6 9.6-9.6 24.8 0 33.6l38.4 38.4c8.8 8.8 24.8 8.8 33.6 0l20-20c9.6-9.6 9.6-24.8 0-33.6l-38.4-38.4c-4-4.8-10.4-7.2-16.8-7.2z" fill="#663210" p-id="21543"></path><path d="M945.6 139.2c24.8 24.8 24.8 65.6 0 90.4l-456 456c-24.8 24.8-65.6 24.8-90.4 0l-51.2-51.2c-24.8-24.8-24.8-65.6 0-90.4l456-456c24.8-24.8 65.6-24.8 90.4 0l51.2 51.2z" fill="#EAEAEA" p-id="21544"></path><path d="M945.6 139.2l-4-4c-3.2 11.2-8.8 21.6-17.6 30.4L445.6 644.8c-19.2 19.2-48.8 24.8-72.8 14.4l26.4 26.4c24.8 24.8 65.6 24.8 90.4 0l456-456c24.8-24.8 24.8-65.6 0-90.4z" fill="#D4D6D6" p-id="21545"></path><path d="M894.4 88c-24.8-24.8-65.6-24.8-90.4 0L713.6 178.4c-24.8 24.8-44.8 47.2-44 50.4 0.8 2.4 21.6 24.8 46.4 49.6l44 44 45.6 45.6s20.8-20 45.6-44.8l94.4-94.4c24.8-24.8 24.8-65.6 0-90.4l-51.2-50.4z" fill="#3AD0F9" p-id="21546"></path><path d="M764 326.4l42.4 42.4 139.2-139.2c24.8-24.8 24.8-65.6 0-90.4l-4-4c-3.2 11.2-8.8 21.6-17.6 30.4l-160 160.8z" fill="#00B3F9" p-id="21547"></path><path d="M804.8 376c-2.4 0-4-0.8-5.6-2.4L664.8 239.2c-3.2-3.2-3.2-8 0-11.2 3.2-3.2 8-3.2 11.2 0l134.4 134.4c3.2 3.2 3.2 8 0 11.2-1.6 1.6-3.2 2.4-5.6 2.4zM787.2 463.2c-2.4 0-4-0.8-5.6-2.4-3.2-3.2-3.2-8 0-11.2L975.2 256c36.8-36.8-2.4-79.2-7.2-84l-44.8-44.8c-3.2-3.2-3.2-8 0-11.2 3.2-3.2 8-3.2 11.2 0l44.8 44.8c20.8 20.8 46.4 67.2 7.2 106.4L792.8 460.8c-1.6 1.6-3.2 2.4-5.6 2.4z" fill="#663210" p-id="21548"></path><path d="M444 712.8c-19.2 0-37.6-7.2-51.2-20.8l-51.2-51.2c-13.6-13.6-20.8-32-20.8-51.2 0-19.2 7.2-37.6 20.8-51.2l456-456c13.6-13.6 32-20.8 51.2-20.8 19.2 0 37.6 7.2 51.2 20.8l51.2 51.2c13.6 13.6 20.8 32 20.8 51.2s-7.2 37.6-20.8 51.2l-456 456c-13.6 12.8-32 20.8-51.2 20.8z m405.6-635.2c-15.2 0-28.8 5.6-40 16l-456 456c-10.4 10.4-16 24.8-16 40s5.6 28.8 16 39.2l51.2 51.2c10.4 10.4 24.8 16 39.2 16 15.2 0 28.8-5.6 40-16l456-456c10.4-10.4 16-24.8 16-40s-5.6-28.8-16-40l-51.2-51.2c-10.4-9.6-24-15.2-39.2-15.2z" fill="#663210" p-id="21549"></path><path d="M809.6 141.6c-2.4 0-4-0.8-5.6-2.4-3.2-3.2-3.2-8 0-11.2l28-28c3.2-3.2 8-3.2 11.2 0 3.2 3.2 3.2 8 0 11.2l-28 28c-0.8 1.6-3.2 2.4-5.6 2.4zM721.6 229.6c-2.4 0-4-0.8-5.6-2.4-3.2-3.2-3.2-8 0-11.2l58.4-57.6c3.2-3.2 8-3.2 11.2 0 3.2 3.2 3.2 8 0 11.2l-58.4 57.6c-1.6 1.6-3.2 2.4-5.6 2.4zM499.2 451.2c-2.4 0-4-0.8-5.6-2.4-3.2-3.2-3.2-8 0-11.2l155.2-154.4c3.2-3.2 8-3.2 11.2 0 3.2 3.2 3.2 8 0 11.2L504.8 448.8c-1.6 1.6-3.2 2.4-5.6 2.4zM369.6 580c-2.4 0-4-0.8-5.6-2.4-3.2-3.2-3.2-8 0-11.2l72-72c3.2-3.2 8-3.2 11.2 0 3.2 3.2 3.2 8 0 11.2l-72 72c-0.8 1.6-3.2 2.4-5.6 2.4z" fill="#FFFFFF" p-id="21550"></path><path d="M968 840H736c-4.8 0-8-3.2-8-8s3.2-8 8-8h232c4.8 0 8 3.2 8 8s-3.2 8-8 8zM648 840H88.8c-4.8 0-8-3.2-8-8s3.2-8 8-8H648c4.8 0 8 3.2 8 8s-3.2 8-8 8z" fill="#663210" p-id="21551"></path><path d="M394.4 640c-2.4 0-4-0.8-5.6-2.4-3.2-3.2-3.2-8 0-11.2l312-306.4c3.2-3.2 8-3.2 11.2 0 3.2 3.2 3.2 8 0 11.2L400 637.6c-1.6 1.6-3.2 2.4-5.6 2.4z" fill="#D4D6D6" p-id="21552"></path><path d="M280 324c-19.2 0-34.4-15.2-34.4-34.4s15.2-34.4 34.4-34.4 34.4 15.2 34.4 34.4-15.2 34.4-34.4 34.4z m0-52c-10.4 0-18.4 8-18.4 18.4 0 10.4 8 18.4 18.4 18.4 10.4 0 18.4-8 18.4-18.4 0-10.4-8-18.4-18.4-18.4zM693.6 761.6c-19.2 0-34.4-15.2-34.4-34.4s15.2-34.4 34.4-34.4 34.4 15.2 34.4 34.4c-0.8 18.4-16 34.4-34.4 34.4z m0-52.8c-10.4 0-18.4 8-18.4 18.4 0 10.4 8 18.4 18.4 18.4 10.4 0 18.4-8 18.4-18.4-0.8-10.4-8.8-18.4-18.4-18.4zM204 576c0-3.2-3.2-6.4-8-7.2l-15.2-2.4c-4-0.8-8.8-4.8-8.8-8.8l-2.4-15.2c-0.8-4-4-8-7.2-8s-6.4 3.2-7.2 8l-2.4 15.2c-0.8 4-4.8 8.8-8.8 8.8l-15.2 2.4c-4 0.8-8 4-8 7.2s3.2 6.4 8 7.2l15.2 2.4c4 0.8 8.8 4.8 8.8 8.8l2.4 15.2c0.8 4 4 8 7.2 8s6.4-3.2 6.4-8l2.4-16.8c0.8-4 4.8-8 8.8-8.8l14.4-0.8c6.4-1.6 9.6-4 9.6-7.2zM910.4 621.6c0-3.2-3.2-6.4-8-7.2l-15.2-2.4c-4-0.8-8.8-4.8-8.8-8.8l-2.4-15.2c-0.8-4-4-8-7.2-8s-6.4 3.2-7.2 8l-2.4 15.2c-0.8 4-4.8 8.8-8.8 8.8l-15.2 2.4c-4 0.8-8 4-8 7.2s3.2 6.4 8 7.2l15.2 2.4c4 0.8 8.8 4.8 8.8 8.8l2.4 15.2c0.8 4 4 8 7.2 8s6.4-3.2 6.4-8l2.4-16.8c0.8-4 4.8-8 8.8-8.8l14.4-0.8c6.4-1.6 9.6-4 9.6-7.2zM574.4 146.4c0-3.2-3.2-6.4-8-7.2l-14.4-1.6c-4-0.8-8.8-4.8-8.8-8.8l-2.4-15.2c-0.8-4-4-8-7.2-8s-6.4 3.2-7.2 8l-2.4 15.2c-0.8 4-4.8 8.8-8.8 8.8l-15.2 2.4c-4 0.8-8 4-8 7.2s3.2 6.4 8 7.2l15.2 2.4c4 0.8 8.8 4.8 8.8 8.8l2.4 15.2c0.8 4 4 8 7.2 8s6.4-3.2 6.4-8l2.4-16.8c0.8-4 4.8-8 8.8-8.8l14.4-0.8c5.6-1.6 8.8-4.8 8.8-8z" fill="#FFFFFF" p-id="21553"></path></svg>