<?xml version="1.0" standalone="no"?><!DOCTYPE svg PUBLIC "-//W3C//DTD SVG 1.1//EN" "http://www.w3.org/Graphics/SVG/1.1/DTD/svg11.dtd"><svg t="1655632367747" class="icon" viewBox="0 0 1024 1024" version="1.1" xmlns="http://www.w3.org/2000/svg" p-id="21694" xmlns:xlink="http://www.w3.org/1999/xlink" width="200" height="200"><defs><style type="text/css">@font-face { font-family: feedback-iconfont; src: url("//at.alicdn.com/t/font_1031158_u69w8yhxdu.woff2?t=1630033759944") format("woff2"), url("//at.alicdn.com/t/font_1031158_u69w8yhxdu.woff?t=1630033759944") format("woff"), url("//at.alicdn.com/t/font_1031158_u69w8yhxdu.ttf?t=1630033759944") format("truetype"); }
</style></defs><path d="M493.438028 708.75692H235.500421c-57.569912 0-104.249841 46.671929-104.249841 104.249841v91.491861c0 57.579912 46.679929 104.249841 104.249841 104.249841h257.937607c57.577912 0 104.249841-46.671929 104.249841-104.249841v-91.491861c0-57.579912-46.671929-104.249841-104.249841-104.249841z m0 0" fill="#3E4C56" p-id="21695"></path><path d="M344.156256 1008.748463H235.500421c-57.579912 0-104.249841-46.671929-104.249841-104.249841v-91.491861c0-57.579912 46.671929-104.249841 104.249841-104.249841h108.655835c-57.569912 0-104.241841 46.671929-104.241841 104.249841v91.491861c0 57.579912 46.671929 104.249841 104.241841 104.249841z m0 0" fill="#212C33" p-id="21696"></path><path d="M566.327917 708.75692H162.608532c-17.319974 0-31.357952-14.039979-31.357952-31.351952 0-17.319974 14.039979-31.359952 31.359952-31.359952h403.719385c17.319974 0 31.357952 14.039979 31.357952 31.359952 0 17.311974-14.039979 31.351952-31.359952 31.351952z m0 0" fill="#AAE3F9" p-id="21697"></path><path d="M271.820366 708.76492H162.610532c-17.305974 0-31.359952-14.039979-31.359952-31.359952 0-8.663987 3.515995-16.499975 9.195986-22.171966a31.239952 31.239952 0 0 1 22.163966-9.187986H271.820366a31.269952 31.269952 0 0 0-22.171966 9.187986 31.257952 31.257952 0 0 0-9.187986 22.171966c0 17.319974 14.055979 31.359952 31.359952 31.359952z m0 0" fill="#8FD0E5" p-id="21698"></path><path d="M678.429746 348.899468c-63.765903 24.943962-127.279806 64.029902-149.617772 123.975812 1.305998-0.749999 61.459906-35.243946 135.813793-55.109916-0.306 0.545999-0.593999 1.093998-0.875998 1.639997-81.249876 158.889758-215.795671 186.023717-245.265627 170.117741-27.123959-14.639978-145.239779-22.101966-34.099948-280.055573 21.233968-49.271925 47.725927-91.94386 77.419882-128.319805-2.435996 36.421945 0.204 76.585883 13.969979 114.187826 0 0 1.585998-18.467972 7.859988-46.273929C511.044001 127.585806 610.067851 34.219948 733.481663 17.641973c63.991903-8.595987 116.827822 5.841991 140.079786 40.583938 51.067922 76.343884-14.883977 148.843773-88.267865 221.117663-30.585953 30.115954-66.881898 53.913918-106.865838 69.553894z m0 0" fill="#5EB3DD" p-id="21699"></path><path d="M515.531995 912.826609c-16.101975 0-29.149956-13.05398-29.149956-29.155955v-71.553891c0-16.101975 13.04798-29.149956 29.149956-29.149956s29.155956 13.04798 29.155955 29.149956v71.553891c0 16.099975-13.05598 29.155956-29.155955 29.155955z m0 0" fill="#66747C" p-id="21700"></path><path d="M886.24143 49.749924C860.10947 10.679984 802.249558-6.969989 731.453666 2.523996c-63.469903 8.529987-122.007814 36.311945-169.297742 80.327878-39.765939 37.015944-69.023895 83.107873-85.66387 134.561795-0.459999-11.359983-0.28-23.117965 0.531999-35.249947a15.249977 15.249977 0 0 0-9.625985-15.209976 15.269977 15.269977 0 0 0-17.413974 4.545993c-31.999951 39.21994-58.78791 83.599873-79.607878 131.937799-46.969928 109.015834-59.39191 186.437716-37.961942 236.693639 15.991976 37.499943 46.539929 50.335923 66.279899 57.781912a715.49291 715.49291 0 0 0-8.699987 32.88195H162.608532C136.906571 630.795039 116.000603 651.703007 116.000603 677.404968c0 23.579964 17.599973 43.109934 40.351939 46.17993C131.626579 745.490864 116.000603 777.452816 116.000603 813.004761v78.563881a15.249977 15.249977 0 0 0 15.249977 15.249977 15.251977 15.251977 0 0 0 15.257977-15.249977v-78.561881c0-49.069925 39.919939-88.991864 88.991864-88.991864h257.953607c49.069925 0 88.991864 39.919939 88.991865 88.991864v91.499861c0 49.069925-39.921939 88.991864-88.991865 88.991864H235.500421c-34.117948 0-64.695901-19.015971-79.811878-49.625924a15.245977 15.245977 0 0 0-20.429969-6.919989c-7.553988 3.725994-10.647984 12.87398-6.92199 20.427968C148.632554 998.474479 189.688491 1023.99844 235.500421 1023.99844h257.953607c65.8899 0 119.499818-53.609918 119.499818-119.499818v-91.491861c0-35.553946-15.633976-67.515897-40.359938-89.429863 22.749965-3.061995 40.351939-22.593966 40.351938-46.17193 0-25.701961-20.905968-46.609929-46.609929-46.609929h-144.945779a699.100935 699.100935 0 0 1 6.139991-22.873965c3.845994 0.553999 7.993988 0.835999 12.399981 0.835999 13.889979 0 30.343954-2.749996 47.835927-8.187988 35.919945-11.179983 126.319808-50.529923 189.529711-174.147735 0.212-0.413999 0.421999-0.819999 0.649999-1.233998a15.243977 15.243977 0 0 0-1.289998-16.797974 15.271977 15.271977 0 0 0-15.975976-5.359992c-35.297946 9.429986-67.265898 21.953967-91.67186 32.82995 24.787962-28.163957 63.249904-52.53192 114.975825-72.749889 41.835936-16.359975 79.523879-40.891938 112.015829-72.905889 8.975986-8.843987 20.719968-20.499969 31.929952-32.319951a15.253977 15.253977 0 0 0-22.133967-20.993968c-10.889983 11.485983-22.397966 22.905965-31.201952 31.579952-29.531955 29.091956-63.757903 51.379922-101.719845 66.225899-84.545871 33.05395-137.82779 77.749882-158.359759 132.859798a15.259977 15.259977 0 0 0 4.445993 16.967974 15.259977 15.259977 0 0 0 17.485974 1.561997c0.483999-0.28 41.077937-23.553964 96.115853-42.539935-55.787915 89.007864-124.77181 118.843819-153.865765 127.891805-18.249972 5.679991-32.63395 7.179989-42.047936 6.76599 20.055969-61.579906 52.117921-138.679789 97.155852-217.453669 49.649924-86.819868 131.5078-203.053691 239.547635-263.779598a15.239977 15.239977 0 0 0 5.819991-20.765968 15.251977 15.251977 0 0 0-20.765968-5.827991c-114.109826 64.139902-199.523696 185.069718-251.077618 275.23358-46.06993 80.545877-78.96788 159.663757-99.639848 223.093661-16.311975-6.24999-36.585944-15.601976-47.211928-40.531939-17.733973-41.579937-4.975992-113.125828 37.913942-212.663676 13.485979-31.289952 29.585955-60.811907 48.093927-88.195865 1.779997 26.40596 6.77999 50.921922 14.969977 73.273888a15.249977 15.249977 0 0 0 16.327975 9.867985 15.257977 15.257977 0 0 0 13.18598-13.797979c0.016-0.18 1.609998-17.937973 7.531989-44.225933 26.14796-115.851824 121.389815-204.133689 237.015638-219.679665 58.99191-7.905988 105.859839 4.779993 125.36581 33.953948 24.953962 37.311943 19.81997 75.951884-16.631975 125.27981a15.263977 15.263977 0 0 0 3.203995 21.335967 15.265977 15.265977 0 0 0 21.335967-3.201995c44.039933-59.609909 49.749924-112.063829 17.451974-160.367756zM582.439893 677.404968c0 8.875986-7.227989 16.099975-16.109976 16.099975H162.608532c-8.879986 0-16.099975-7.223989-16.099975-16.099975 0-8.881986 7.219989-16.109975 16.099975-16.109975h403.727385c8.873986 0 16.099975 7.227989 16.099976 16.109975z m0 0" p-id="21701"></path></svg>